<!DOCTYPE svg PUBLIC "-//W3C//DTD SVG 20010904//EN" "http://www.w3.org/TR/2001/REC-SVG-20010904/DTD/svg10.dtd">
<svg version="1.0" xmlns="http://www.w3.org/2000/svg" width="50px" height="50px" viewBox="0 0 14930 16000" preserveAspectRatio="xMidYMid meet">
<g id="layer101" fill="#fffffe" stroke="none">
 <path d="M4872 15491 c-8 -4 -13 -12 -12 -17 0 -5 -10 -10 -22 -12 -13 -1 -42 -5 -64 -8 l-42 -5 -7 -54 c-8 -65 2 -125 21 -125 10 0 14 -15 14 -54 0 -64 7 -86 26 -86 11 0 14 -19 14 -87 0 -58 3 -83 10 -73 16 26 25 1 29 -82 3 -69 6 -81 22 -85 16 -5 19 -15 19 -74 0 -52 3 -69 14 -69 17 0 26 -43 26 -121 0 -53 2 -59 21 -59 19 0 20 -4 14 -66 -7 -61 -6 -66 14 -71 23 -6 25 -16 22 -109 -2 -37 2 -64 8 -68 6 -4 11 -1 11 6 0 9 3 9 10 -2 5 -8 10 -45 10 -82 0 -58 3 -67 20 -73 18 -6 20 -15 20 -88 0 -57 3 -77 10 -67 17 26 30 -8 30 -82 l0 -68 230 0 c227 0 230 0 230 21 0 12 -8 23 -20 26 -17 5 -20 14 -20 70 0 55 -2 64 -14 54 -17 -14 -26 12 -26 75 0 34 -3 42 -17 40 -15 -1 -18 9 -21 63 -3 53 -6 64 -23 68 -16 5 -19 14 -19 70 0 56 -3 66 -20 70 -17 5 -20 14 -20 70 0 56 -3 66 -20 70 -17 5 -20 14 -20 72 0 45 -3 61 -10 51 -14 -23 -23 -4 -28 59 -3 48 -8 60 -23 64 -16 4 -19 15 -19 67 0 53 -3 63 -20 67 -17 5 -20 14 -20 70 0 56 -3 66 -20 70 -17 5 -20 14 -20 70 0 56 -3 66 -20 70 -17 5 -20 14 -20 67 0 41 -3 56 -10 46 -14 -23 -23 -4 -28 59 -3 48 -8 60 -23 64 -16 4 -19 15 -19 70 0 56 -3 65 -20 70 -11 3 -20 14 -20 25 0 15 -9 21 -46 26 -61 8 -76 7 -92 -3z"/>
 <path d="M1575 13618 c-99 -14 -166 -30 -243 -54 -70 -23 -212 -89 -222 -104 -3 -4 -16 -13 -29 -20 -61 -32 -180 -152 -237 -240 -73 -113 -100 -185 -134 -358 -29 -151 0 -384 66 -530 13 -29 24 -55 24 -58 0 -19 121 -181 173 -230 64 -62 147 -124 166 -124 6 0 11 -3 11 -8 0 -4 15 -13 33 -21 17 -7 48 -20 67 -29 33 -15 58 -22 145 -43 22 -5 104 -17 182 -26 124 -15 162 -15 295 -4 84 7 191 19 238 28 47 8 121 19 165 24 44 5 83 13 88 18 11 11 -10 432 -22 444 -5 5 -17 7 -27 5 -16 -3 -20 -16 -25 -73 -8 -91 -30 -144 -83 -193 -103 -97 -265 -142 -507 -142 -266 0 -407 48 -545 184 -146 145 -196 286 -197 556 -2 168 20 274 80 394 121 241 309 388 598 467 77 21 375 18 438 -4 139 -50 197 -114 243 -267 13 -43 18 -51 37 -48 20 3 22 8 20 63 -2 33 -8 83 -13 110 -6 28 -15 75 -21 105 -27 135 -38 143 -249 175 -106 16 -417 18 -515 3z"/>
 <path d="M7660 13619 c-120 -24 -160 -35 -220 -59 -284 -117 -464 -336 -541 -660 -18 -75 -18 -330 0 -395 74 -269 197 -450 391 -578 74 -49 175 -97 240 -116 25 -7 59 -16 75 -21 17 -5 81 -14 143 -21 156 -17 333 2 487 53 230 77 413 231 508 429 103 215 115 492 33 744 -46 138 -110 241 -220 351 -156 156 -293 226 -526 270 -83 15 -300 17 -370 3z m355 -109 c102 -17 217 -61 253 -97 7 -7 17 -13 21 -13 14 0 108 -96 137 -140 99 -149 137 -293 137 -530 0 -201 -23 -318 -94 -465 -84 -175 -263 -327 -439 -373 -113 -30 -315 -27 -415 6 -98 32 -187 82 -256 144 -44 40 -97 116 -132 191 -32 68 -41 96 -66 209 -14 61 -14 325 0 386 36 160 37 165 82 262 106 227 311 385 547 419 73 11 163 11 225 1z"/>
 <path d="M13385 13619 c-22 -5 -62 -14 -90 -21 -75 -17 -115 -39 -122 -68 -9 -32 -9 -64 1 -222 6 -99 11 -128 23 -132 27 -11 43 14 43 64 0 98 64 190 164 236 184 84 439 44 525 -82 29 -42 61 -136 61 -178 0 -38 -16 -99 -37 -146 -24 -53 -132 -154 -288 -269 -77 -58 -142 -107 -145 -110 -3 -3 -21 -18 -40 -32 -51 -39 -121 -108 -155 -154 -16 -22 -33 -42 -36 -45 -10 -8 -37 -65 -53 -111 -24 -68 -21 -224 5 -296 36 -98 100 -169 200 -221 134 -69 314 -90 499 -56 47 8 109 18 138 21 l52 5 0 152 c0 83 -4 157 -9 164 -18 29 -43 8 -57 -46 -27 -103 -63 -142 -169 -178 -65 -22 -241 -25 -305 -5 -85 28 -144 79 -171 152 -52 136 15 268 201 399 19 14 37 28 40 31 3 3 48 34 100 69 52 35 97 66 100 69 3 3 30 25 60 48 30 23 76 63 101 90 54 55 129 164 129 185 0 8 3 18 7 22 16 16 32 107 32 186 1 133 -34 224 -123 318 -88 94 -164 133 -312 161 -70 13 -311 13 -369 0z"/>
 <path d="M10830 13603 c-38 -19 -661 -636 -971 -963 -107 -112 -248 -261 -314 -330 l-120 -125 -3 80 c-2 44 1 200 7 346 6 146 11 350 11 453 0 273 20 420 62 453 18 14 99 33 142 33 39 0 54 14 37 34 -9 11 -70 13 -299 12 -279 -1 -287 -2 -287 -21 0 -12 8 -21 20 -22 11 -2 43 -8 72 -15 94 -20 87 43 93 -913 3 -456 9 -838 14 -847 22 -46 41 -31 361 302 77 80 250 260 385 400 229 238 294 306 445 469 33 35 108 114 167 175 l107 111 -5 -290 c-2 -160 -9 -450 -15 -645 -13 -442 -10 -433 -151 -445 -74 -7 -78 -8 -78 -31 l0 -24 281 0 280 0 -3 23 c-3 19 -12 23 -60 31 -40 6 -63 15 -80 33 l-23 25 -6 842 c-3 463 -9 848 -13 854 -9 15 -14 15 -56 -5z"/>
 <path d="M2778 13589 c-17 -11 -1 -39 23 -39 12 0 39 -5 61 -12 51 -15 63 -43 77 -189 14 -150 15 -1289 0 -1379 -13 -86 -30 -102 -122 -115 -63 -9 -72 -13 -75 -32 l-3 -23 306 0 c271 0 306 2 312 16 8 21 -9 30 -67 38 -51 7 -86 33 -96 70 -3 14 -6 159 -7 323 l-2 298 518 3 518 2 -3 -307 c-4 -379 -3 -376 -130 -389 -63 -6 -68 -8 -68 -30 l0 -24 303 2 c293 3 302 4 302 23 0 16 -10 21 -50 27 -71 12 -91 25 -104 68 -8 26 -11 246 -11 735 0 675 4 795 31 847 10 19 66 37 144 47 41 5 50 10 50 26 0 20 -7 20 -315 20 -307 0 -315 0 -315 -20 0 -15 9 -21 35 -26 52 -9 88 -26 98 -46 24 -44 33 -208 30 -518 l-3 -320 -512 -3 -513 -2 -6 27 c-10 40 5 721 18 770 5 23 17 48 27 56 17 16 104 37 152 37 29 0 50 23 34 38 -9 9 -622 10 -637 1z"/>
 <path d="M5085 13591 c-3 -2 -5 -13 -5 -23 0 -12 7 -18 24 -18 12 0 38 -5 57 -12 83 -28 84 -40 84 -883 0 -757 0 -759 -48 -784 -12 -6 -51 -14 -87 -18 -57 -7 -65 -11 -68 -30 l-3 -23 405 0 c389 0 444 3 551 33 135 37 224 111 281 234 31 66 34 79 34 171 0 110 -18 181 -71 278 -37 66 -51 85 -141 180 -38 39 -68 75 -68 80 0 6 8 19 18 30 10 10 42 51 72 89 29 39 56 72 59 75 4 3 18 21 33 42 15 20 33 42 40 50 7 7 33 38 58 68 25 30 47 57 50 60 3 3 30 34 60 70 85 101 197 205 252 235 53 29 143 54 196 55 36 0 55 25 31 42 -8 5 -91 7 -204 5 -178 -4 -194 -6 -245 -30 -106 -49 -147 -90 -383 -387 -7 -8 -59 -78 -116 -155 -155 -208 -118 -186 -312 -183 l-164 3 -3 115 c-4 150 15 492 29 524 6 13 21 29 33 35 28 14 103 30 144 31 29 0 33 3 30 23 l-3 22 -308 0 c-169 1 -310 -1 -312 -4z m823 -873 c65 -31 120 -107 153 -213 17 -52 16 -258 0 -310 -20 -62 -50 -125 -72 -148 -10 -11 -19 -23 -19 -27 0 -15 -100 -79 -153 -99 -77 -28 -299 -31 -329 -4 -17 15 -18 41 -18 393 0 286 3 380 13 392 39 47 333 59 425 16z"/>
 <path d="M11155 13592 c-3 -3 -5 -14 -5 -24 0 -13 8 -18 31 -18 73 0 131 -24 181 -75 21 -21 88 -147 88 -165 0 -6 9 -29 19 -53 10 -23 42 -103 71 -177 84 -217 180 -463 192 -490 12 -28 9 -19 78 -200 59 -154 69 -178 81 -202 5 -10 9 -22 9 -28 0 -6 8 -29 19 -53 10 -23 33 -80 51 -127 79 -209 97 -238 134 -224 14 5 45 70 97 202 32 80 42 104 78 184 11 26 21 51 21 56 0 5 9 27 20 50 11 22 20 45 20 50 0 5 6 22 14 38 8 16 47 110 86 209 40 99 83 204 96 233 13 29 24 58 24 65 0 7 4 17 8 23 4 5 18 36 31 69 13 33 29 74 36 90 7 17 26 62 41 100 15 39 31 74 35 79 5 6 9 16 9 23 0 37 99 213 148 262 29 29 115 61 165 61 40 0 62 24 36 41 -16 10 -270 12 -422 2 -115 -7 -130 -16 -84 -53 19 -16 20 -22 10 -39 -7 -11 -13 -26 -13 -31 0 -6 -9 -30 -20 -52 -11 -23 -20 -45 -20 -50 0 -5 -9 -28 -20 -53 -11 -25 -29 -65 -40 -90 -11 -25 -20 -48 -20 -53 0 -5 -9 -27 -20 -50 -11 -22 -20 -46 -20 -52 0 -5 -4 -18 -9 -28 -6 -9 -18 -36 -27 -59 l-18 -43 -292 0 -292 0 -37 98 c-20 53 -48 126 -62 161 -64 168 -89 264 -79 304 7 28 44 47 91 47 28 0 35 4 35 20 0 11 -3 21 -7 21 -27 5 -543 5 -548 1z m1145 -772 c0 -5 -5 -22 -11 -37 -6 -15 -16 -39 -22 -53 -15 -39 -24 -62 -37 -100 -7 -19 -16 -45 -21 -57 -5 -13 -13 -33 -18 -45 -5 -13 -14 -39 -21 -58 -7 -19 -16 -44 -20 -55 -4 -11 -17 -45 -28 -75 -55 -149 -67 -180 -73 -180 -9 0 -60 132 -109 280 -16 47 -39 112 -51 145 -12 33 -36 102 -54 153 l-33 92 249 0 c151 0 249 -4 249 -10z"/>
 <path d="M5713 11658 c3 -18 15 -69 27 -113 12 -44 25 -96 30 -115 9 -39 40 -153 65 -245 51 -185 155 -595 155 -611 0 -16 -95 -44 -148 -44 -26 0 -42 -5 -46 -15 -3 -10 -19 -15 -46 -15 -29 0 -40 -4 -40 -15 0 -10 -10 -15 -30 -15 -16 0 -30 -4 -30 -10 0 -5 -16 -10 -35 -10 -24 0 -35 -5 -35 -15 0 -10 -11 -15 -35 -15 -23 0 -34 -4 -32 -12 1 -8 -11 -14 -30 -16 -21 -2 -33 -9 -33 -18 0 -9 -10 -14 -29 -14 -16 0 -31 -6 -35 -15 -3 -9 -18 -15 -36 -15 -18 0 -29 -4 -25 -10 4 -6 -6 -10 -23 -10 -22 0 -31 -6 -35 -21 -4 -16 -11 -19 -26 -14 -15 5 -21 2 -21 -9 0 -10 -9 -16 -25 -16 -16 0 -25 -6 -25 -15 0 -10 -10 -15 -30 -15 -18 0 -29 -5 -27 -12 1 -7 -11 -14 -28 -18 -16 -3 -28 -10 -25 -15 3 -6 -7 -11 -22 -13 -16 -2 -28 -9 -28 -18 0 -8 -9 -14 -20 -14 -11 0 -20 -4 -20 -10 0 -5 -7 -10 -15 -10 -8 0 -23 -9 -32 -20 -10 -11 -23 -20 -30 -20 -7 0 -13 -4 -13 -10 0 -5 -7 -10 -15 -10 -8 0 -19 -9 -25 -20 -6 -11 -16 -17 -25 -14 -9 4 -15 0 -15 -10 0 -9 -8 -16 -19 -16 -10 0 -21 -7 -25 -15 -3 -8 -12 -15 -20 -15 -7 0 -16 -7 -20 -15 -3 -8 -12 -15 -21 -15 -8 0 -15 -7 -15 -15 0 -8 -9 -15 -20 -15 -11 0 -20 -7 -20 -15 0 -8 -6 -15 -14 -15 -8 0 -16 -7 -20 -15 -3 -8 -12 -15 -21 -15 -8 0 -14 -6 -13 -12 2 -7 -7 -14 -20 -16 -12 -2 -20 -8 -17 -13 4 -5 2 -9 -4 -9 -5 0 -25 -16 -44 -35 -19 -19 -39 -35 -44 -35 -6 0 -13 -7 -17 -15 -3 -8 -13 -15 -21 -15 -9 0 -14 -4 -11 -9 3 -4 -12 -27 -34 -50 -22 -23 -40 -46 -40 -51 0 -6 -7 -10 -15 -10 -8 0 -15 -7 -15 -15 0 -8 -7 -15 -15 -15 -8 0 -15 -7 -15 -15 0 -8 -7 -15 -15 -15 -8 0 -15 -4 -15 -8 0 -5 -16 -25 -35 -45 -19 -20 -35 -43 -35 -52 0 -8 -7 -15 -15 -15 -8 0 -17 -11 -21 -25 -3 -14 -12 -25 -20 -25 -8 0 -14 -9 -14 -20 0 -11 -7 -20 -15 -20 -8 0 -15 -7 -15 -15 0 -8 -9 -23 -20 -32 -11 -10 -20 -23 -20 -30 0 -7 -6 -13 -14 -13 -8 0 -17 -11 -20 -25 -4 -14 -11 -25 -16 -25 -6 0 -10 -8 -10 -19 0 -10 -9 -21 -20 -24 -14 -3 -20 -14 -20 -31 0 -16 -6 -26 -15 -26 -10 0 -15 -10 -15 -30 0 -20 -5 -30 -15 -30 -13 0 -20 -19 -16 -43 1 -5 -8 -11 -19 -14 -14 -4 -20 -14 -20 -34 0 -18 -5 -29 -14 -29 -8 0 -17 -13 -21 -29 -3 -16 -13 -32 -21 -35 -8 -3 -14 -16 -14 -29 0 -14 -7 -30 -15 -37 -8 -7 -15 -28 -15 -47 0 -26 -5 -36 -20 -40 -14 -4 -20 -14 -20 -34 0 -17 -6 -32 -14 -35 -8 -3 -17 -21 -21 -41 -3 -20 -13 -42 -21 -50 -8 -8 -14 -32 -14 -53 0 -21 -6 -45 -13 -52 -8 -7 -17 -31 -20 -53 -4 -22 -13 -45 -22 -51 -10 -8 -15 -29 -15 -68 0 -43 -5 -61 -20 -76 -14 -14 -20 -33 -20 -67 0 -62 -9 -93 -26 -93 -11 0 -14 -20 -14 -89 0 -81 -13 -149 -30 -161 -4 -3 -13 -102 -19 -220 -7 -118 -16 -289 -22 -380 -8 -149 -7 -166 8 -177 14 -11 15 -27 10 -117 -6 -87 -4 -105 8 -110 11 -4 15 -23 15 -80 0 -51 4 -76 13 -79 8 -2 11 -25 9 -74 -2 -56 1 -72 13 -77 8 -3 15 -13 15 -22 0 -10 -5 -14 -14 -11 -10 4 -13 1 -9 -9 4 -11 -5 -14 -40 -14 -31 0 -47 -5 -51 -15 -3 -10 -19 -15 -45 -15 -25 0 -41 -5 -45 -15 -3 -10 -19 -15 -46 -15 -22 0 -40 -4 -40 -10 0 -5 -20 -10 -45 -10 -33 0 -45 -4 -45 -15 0 -11 -12 -15 -45 -15 -31 0 -44 -4 -42 -12 1 -9 -14 -14 -46 -16 -26 -2 -45 -7 -42 -13 4 -5 -13 -9 -38 -9 -31 0 -47 -5 -51 -15 -3 -10 -19 -15 -45 -15 -25 0 -41 -5 -45 -15 -3 -10 -19 -15 -46 -15 -22 0 -40 -4 -40 -10 0 -5 -20 -10 -45 -10 -33 0 -45 -4 -45 -15 0 -11 -12 -15 -45 -15 -33 0 -45 -4 -45 -15 0 -11 -12 -15 -45 -15 -25 0 -45 -4 -45 -10 0 -5 -18 -10 -39 -10 -25 0 -41 -5 -45 -15 -3 -10 -19 -15 -45 -15 -25 0 -41 -5 -45 -15 -3 -10 -19 -15 -46 -15 -22 0 -40 -4 -40 -10 0 -5 -20 -10 -45 -10 -33 0 -45 -4 -45 -15 0 -11 -12 -15 -45 -15 -33 0 -45 -4 -45 -15 0 -11 -12 -15 -46 -15 -27 0 -43 -4 -39 -10 4 -6 -10 -10 -36 -10 -28 0 -46 -6 -54 -17 -9 -13 -24 -17 -54 -14 -34 2 -40 0 -35 -13 5 -13 -2 -16 -36 -16 -23 0 -48 -6 -56 -15 -10 -10 -24 -13 -40 -9 -18 5 -31 1 -44 -14 -15 -16 -27 -20 -55 -15 -28 4 -35 2 -35 -11 0 -12 -10 -16 -44 -16 -31 0 -46 -5 -50 -16 -4 -10 -16 -14 -34 -13 -18 2 -36 -4 -47 -15 -13 -13 -27 -16 -52 -11 -26 5 -33 3 -33 -10 0 -11 -11 -15 -44 -15 -30 0 -46 -5 -50 -15 -3 -10 -19 -15 -45 -15 -27 0 -41 -5 -45 -16 -5 -13 -15 -15 -46 -11 -30 4 -40 2 -40 -9 0 -10 -13 -14 -45 -14 -31 0 -44 -4 -43 -12 2 -9 -14 -15 -45 -18 -26 -3 -46 -9 -45 -15 2 -5 -16 -11 -39 -13 -24 -2 -43 -7 -43 -13 0 -5 -17 -9 -39 -9 -22 0 -44 -6 -51 -15 -7 -8 -19 -15 -26 -15 -17 0 -20 -115 -4 -125 6 -3 10 -17 10 -30 0 -29 3 -31 63 -39 39 -6 47 -5 47 8 0 13 12 16 56 16 34 0 53 4 49 10 -7 12 4 14 63 10 33 -1 42 2 42 14 0 13 11 16 54 16 39 0 55 4 60 15 4 11 20 15 56 15 27 0 50 5 50 10 0 6 22 10 49 10 34 0 51 4 55 15 4 11 21 15 61 15 39 0 54 4 53 13 -2 8 14 13 49 15 29 2 53 7 53 13 0 5 24 9 54 9 41 0 55 4 60 16 5 14 16 16 56 11 38 -5 50 -3 50 7 0 20 21 25 69 19 33 -5 41 -3 41 11 0 13 11 16 56 16 34 0 53 4 49 10 -4 6 15 10 48 10 40 0 56 4 61 15 4 11 20 15 55 15 34 0 51 4 55 15 4 11 20 15 56 15 27 0 50 5 50 10 0 6 22 10 49 10 34 0 51 4 55 15 4 11 20 15 55 15 36 0 51 4 55 16 5 13 16 16 56 12 38 -4 50 -2 50 8 0 10 16 14 60 14 43 0 59 4 57 13 -1 9 13 11 51 9 41 -2 52 1 52 13 0 17 7 19 68 15 31 -1 42 2 40 12 -2 9 13 14 55 16 33 2 55 7 52 13 -4 5 16 9 48 9 40 0 56 4 61 15 4 11 20 15 56 15 38 0 50 4 50 15 0 12 13 15 56 15 34 0 53 4 49 10 -4 6 15 10 48 10 40 0 56 4 61 15 4 11 20 15 55 15 36 0 51 4 55 16 5 14 16 16 56 11 40 -5 50 -3 50 8 0 9 10 15 25 15 22 0 25 -3 19 -25 -4 -18 -1 -27 10 -31 11 -4 16 -20 17 -53 0 -25 3 -40 6 -33 9 22 23 2 23 -34 0 -22 6 -37 15 -40 9 -4 15 -19 15 -35 0 -19 5 -29 15 -29 10 0 15 -10 15 -29 0 -17 5 -33 10 -36 6 -3 10 -17 10 -30 0 -14 8 -29 19 -35 13 -6 17 -17 14 -30 -4 -14 -1 -20 8 -18 8 2 15 -7 17 -20 2 -13 10 -26 18 -29 8 -3 14 -18 14 -34 0 -19 5 -29 15 -29 8 0 15 -9 15 -21 0 -11 4 -18 9 -15 10 7 21 -17 21 -45 0 -10 7 -19 15 -19 8 0 15 -7 15 -15 0 -8 4 -15 9 -15 5 0 11 -13 15 -30 3 -18 12 -30 21 -30 8 0 15 -9 15 -20 0 -11 5 -20 10 -20 6 0 10 -7 10 -15 0 -9 6 -18 14 -21 8 -3 17 -16 20 -29 3 -12 17 -33 31 -46 13 -13 25 -30 25 -36 0 -7 7 -13 15 -13 8 0 15 -9 15 -20 0 -11 4 -20 8 -20 5 0 15 -12 23 -27 7 -16 31 -45 51 -65 21 -21 38 -40 38 -43 0 -3 14 -19 30 -35 17 -16 30 -34 30 -40 0 -5 7 -10 15 -10 8 0 15 -7 15 -15 0 -8 7 -15 15 -15 8 0 15 -7 15 -15 0 -9 7 -18 15 -21 8 -4 15 -12 15 -20 0 -8 7 -14 15 -14 8 0 15 -4 15 -10 0 -9 51 -61 187 -190 17 -16 36 -30 42 -30 6 0 11 -7 11 -15 0 -8 7 -15 15 -15 8 0 15 -7 15 -15 0 -8 7 -15 15 -15 8 0 23 -9 32 -20 10 -11 23 -20 30 -20 7 0 13 -7 13 -15 0 -8 7 -15 15 -15 9 0 18 -7 21 -15 4 -8 14 -15 24 -15 10 0 21 -9 25 -19 3 -10 15 -21 26 -24 12 -3 18 -10 14 -16 -4 -7 4 -11 20 -11 14 0 28 -7 31 -15 4 -8 12 -15 20 -15 7 0 19 -8 26 -19 7 -10 22 -21 33 -23 11 -2 19 -10 17 -16 -1 -7 7 -12 17 -12 11 0 26 -7 35 -15 8 -8 19 -15 25 -15 6 0 16 -9 23 -20 7 -11 23 -20 36 -20 12 0 25 -6 28 -14 3 -8 19 -18 35 -21 16 -4 29 -13 29 -21 0 -8 10 -14 25 -14 14 0 28 -7 31 -15 4 -8 17 -15 30 -15 13 0 29 -9 36 -20 8 -12 24 -20 40 -20 18 0 28 -5 28 -15 0 -10 10 -15 29 -15 16 0 36 -6 44 -14 8 -8 31 -18 51 -21 21 -4 36 -13 36 -21 0 -9 12 -14 35 -14 24 0 37 -6 45 -19 7 -15 23 -21 58 -23 28 -2 46 -7 45 -14 -1 -7 20 -15 52 -19 38 -4 55 -11 55 -21 0 -10 13 -14 44 -14 50 0 78 -8 71 -20 -3 -5 25 -11 62 -15 81 -8 105 -14 98 -24 -2 -5 30 -11 73 -15 91 -8 124 -15 117 -26 -8 -13 292 -33 670 -45 83 -3 176 -7 207 -9 40 -3 57 0 55 7 -1 8 27 13 91 15 50 1 92 7 92 12 0 6 37 10 85 10 50 0 85 4 85 10 0 6 26 10 59 10 43 0 60 4 65 15 4 11 22 15 71 15 45 0 64 4 63 12 -2 6 5 14 15 16 13 3 17 -3 17 -27 0 -17 5 -31 10 -31 6 0 10 -18 10 -41 0 -22 4 -38 9 -35 11 7 21 -18 21 -55 0 -19 5 -29 15 -29 11 0 15 -12 15 -50 0 -27 5 -50 10 -50 6 0 10 -17 10 -39 0 -22 6 -44 15 -51 8 -7 15 -29 15 -50 0 -24 5 -40 15 -44 10 -3 15 -19 15 -48 0 -32 3 -39 10 -28 7 11 10 2 10 -33 0 -33 5 -49 15 -53 10 -4 15 -20 15 -45 0 -26 5 -42 15 -45 10 -4 15 -20 15 -50 0 -29 5 -47 14 -50 10 -4 12 -16 9 -44 -5 -32 -2 -39 15 -44 17 -6 20 -13 15 -41 -4 -28 -2 -35 11 -35 12 0 16 -10 16 -44 0 -31 5 -46 16 -50 12 -5 15 -14 10 -40 -5 -28 -3 -37 14 -49 18 -12 20 -21 15 -51 -6 -28 -4 -37 9 -42 11 -4 16 -19 16 -53 0 -29 3 -41 9 -33 6 10 10 8 14 -10 4 -12 7 -33 7 -45 0 -12 5 -23 12 -25 6 -2 12 -21 12 -41 1 -20 7 -42 14 -49 7 -7 12 -29 12 -50 0 -25 5 -41 15 -44 10 -4 15 -20 15 -49 0 -30 5 -45 16 -49 13 -5 15 -14 9 -42 -5 -31 -4 -36 9 -31 13 5 16 -2 16 -39 0 -30 5 -46 15 -50 10 -4 15 -20 15 -50 0 -32 4 -44 15 -44 11 0 15 -12 15 -45 0 -25 5 -45 10 -45 6 0 10 -17 10 -39 0 -22 6 -44 15 -51 8 -7 15 -28 15 -47 0 -19 4 -32 9 -29 10 7 21 -27 21 -66 0 -16 5 -28 10 -28 6 0 10 -18 10 -40 0 -27 5 -43 15 -46 10 -4 15 -20 15 -49 0 -29 5 -45 15 -49 10 -3 15 -19 15 -46 0 -25 4 -39 10 -35 6 4 10 -10 10 -33 0 -26 5 -42 15 -46 10 -4 15 -20 15 -51 0 -33 4 -45 15 -45 11 0 15 -12 15 -44 0 -25 5 -48 10 -51 6 -3 10 -21 10 -40 0 -18 7 -40 15 -49 8 -8 15 -31 15 -51 0 -20 4 -34 9 -31 11 7 21 -17 21 -50 0 -13 10 -35 22 -49 17 -20 31 -25 65 -25 30 0 45 5 49 15 4 10 20 15 45 15 l39 0 0 50 c0 28 -4 50 -10 50 -5 0 -10 25 -10 55 0 40 -4 57 -15 61 -10 4 -15 20 -15 50 0 30 -5 46 -15 50 -11 5 -15 22 -15 65 0 33 -4 59 -10 59 -5 0 -10 20 -10 45 0 31 -5 47 -15 51 -10 4 -15 21 -15 54 0 30 -5 50 -12 53 -9 2 -12 21 -11 56 2 38 -2 53 -12 58 -10 3 -15 20 -15 55 0 30 -4 47 -10 43 -11 -7 -14 10 -10 72 1 32 -2 45 -14 49 -11 4 -16 19 -16 50 0 30 -5 46 -15 50 -11 5 -15 21 -15 59 0 30 -4 57 -10 60 -5 3 -10 26 -10 51 0 30 -5 46 -15 50 -10 4 -15 20 -15 48 0 22 -7 50 -15 60 -8 11 -15 39 -15 62 0 24 -4 46 -10 49 -5 3 -10 32 -10 63 0 35 -4 52 -9 44 -13 -21 -23 14 -15 53 4 25 1 38 -15 54 -16 16 -19 28 -14 57 5 28 2 39 -10 46 -13 7 -17 24 -17 66 0 40 -3 53 -10 42 -7 -11 -10 1 -10 41 0 38 -5 61 -15 69 -9 8 -15 29 -15 55 0 29 -5 45 -15 49 -11 4 -15 21 -15 60 0 30 -4 58 -10 61 -5 3 -10 26 -10 51 0 32 -4 44 -15 44 -12 0 -15 13 -15 61 0 34 -4 58 -9 54 -13 -8 -23 28 -16 58 4 15 1 30 -9 40 -10 9 -16 33 -16 57 0 24 -6 48 -16 57 -11 11 -14 26 -9 53 5 28 2 42 -11 55 -13 12 -17 30 -15 56 2 28 -2 41 -13 45 -12 5 -16 21 -16 65 0 33 -4 59 -10 59 -5 0 -10 20 -10 45 0 31 -5 47 -15 51 -11 4 -15 21 -15 55 0 37 -4 49 -15 49 -8 0 -15 5 -15 10 0 6 11 10 25 10 14 0 28 7 31 15 4 10 20 15 45 15 28 0 39 4 39 15 0 10 11 15 35 15 19 0 35 5 35 10 0 6 18 10 40 10 29 0 40 4 40 15 0 11 11 15 40 15 26 0 39 4 38 12 -2 7 12 15 32 19 19 3 31 7 25 8 -17 2 19 21 41 21 12 0 24 7 28 15 3 8 17 15 31 15 14 0 25 5 25 10 0 6 14 10 30 10 18 0 33 6 36 15 4 9 19 15 35 15 19 0 29 5 29 15 0 9 9 15 24 15 13 0 26 7 30 15 3 8 17 15 31 15 15 0 24 5 23 13 -2 7 9 13 25 15 15 2 27 8 27 13 0 5 9 9 20 9 10 0 24 9 30 20 6 11 20 20 30 20 11 0 20 5 20 10 0 6 11 10 25 10 16 0 25 6 25 15 0 9 9 15 25 15 16 0 25 6 25 15 0 8 9 15 20 15 11 0 20 7 20 15 0 8 9 15 20 15 11 0 20 7 20 15 0 9 9 15 24 15 13 0 26 7 30 15 3 8 12 15 20 15 7 0 16 7 20 15 3 8 12 15 21 15 8 0 15 4 15 10 0 5 11 12 25 16 14 3 25 10 25 15 0 5 8 13 17 16 9 4 33 24 54 45 20 21 42 38 47 38 6 0 16 9 22 20 6 11 16 20 22 20 6 0 21 11 34 25 13 14 30 25 39 25 8 0 14 3 13 8 -4 9 39 52 52 52 6 0 10 5 10 10 0 13 37 50 50 50 6 0 10 5 10 10 0 13 37 50 50 50 6 0 10 7 10 15 0 8 7 15 15 15 9 0 18 7 21 15 4 8 12 15 20 15 8 0 14 7 14 15 0 8 5 15 10 15 6 0 10 7 10 15 0 8 5 15 10 15 6 0 10 5 10 10 0 13 37 50 50 50 6 0 10 7 10 15 0 8 5 15 10 15 6 0 10 7 10 15 0 8 5 15 10 15 6 0 10 5 10 10 0 13 37 50 49 50 5 0 12 14 16 30 4 17 11 30 16 30 5 0 9 7 9 15 0 8 6 15 14 15 15 0 26 21 26 51 0 10 6 19 13 19 8 0 19 11 25 25 6 14 16 25 21 25 6 0 8 6 5 14 -3 8 3 16 15 19 15 3 21 13 21 31 0 16 6 26 14 26 8 0 17 14 21 31 4 17 13 33 21 36 8 3 14 18 14 34 0 19 5 29 15 29 10 0 15 10 15 29 0 20 6 30 20 34 14 3 20 14 20 31 0 15 6 26 14 26 8 0 15 16 19 41 3 23 11 45 17 49 6 4 14 26 17 49 4 25 11 41 19 41 8 0 14 10 14 23 0 38 12 67 26 67 10 0 14 14 14 50 0 36 4 50 14 50 16 0 26 30 26 83 0 25 5 37 14 37 10 0 16 21 21 75 6 69 17 93 28 63 2 -7 7 40 11 105 5 64 12 120 17 123 5 3 9 0 9 -7 0 -7 3 -10 6 -7 5 6 18 252 31 591 4 130 3 177 -5 177 -8 0 -12 31 -12 101 0 64 -4 98 -10 94 -6 -4 -10 26 -10 83 0 66 -4 93 -14 102 -11 8 -13 24 -9 61 5 39 3 50 -11 55 -12 5 -16 20 -16 65 0 40 -4 61 -14 66 -20 11 -25 84 -6 106 9 10 29 17 52 17 21 0 38 5 38 10 0 6 18 10 39 10 25 0 41 5 45 15 4 10 20 15 51 15 31 0 44 4 42 13 -1 8 14 13 46 15 26 2 45 7 42 13 -7 10 4 12 53 9 23 -1 32 3 32 14 0 12 11 16 45 16 33 0 45 4 45 15 0 11 12 15 44 15 31 0 46 5 50 16 4 12 14 14 37 9 24 -5 35 -2 50 13 15 16 26 20 54 15 28 -4 35 -2 33 8 -2 10 12 16 47 20 28 3 46 7 40 8 -20 3 21 21 48 21 16 0 35 7 44 15 10 11 25 14 49 9 27 -5 34 -3 34 10 0 12 10 16 44 16 30 0 46 5 50 15 3 10 19 15 45 15 27 0 41 5 45 16 5 13 15 15 46 10 32 -5 40 -3 40 9 0 11 12 15 45 15 31 0 44 4 43 13 -2 7 12 13 37 15 22 2 44 10 48 18 5 8 24 14 47 14 22 0 40 5 40 10 0 6 17 10 39 10 22 0 44 6 51 15 7 8 29 15 50 15 24 0 40 5 44 15 3 10 19 15 46 15 22 0 40 5 40 10 0 6 18 10 39 10 25 0 41 5 45 15 3 10 19 15 45 15 25 0 41 5 45 15 3 10 19 15 46 15 22 0 40 5 40 10 0 6 18 10 40 10 27 0 43 5 46 15 4 10 20 15 50 15 32 0 44 4 44 15 0 11 12 15 45 15 25 0 45 5 45 10 0 6 15 10 34 10 19 0 41 7 50 15 8 8 30 15 49 15 22 0 37 6 41 15 4 10 20 15 51 15 26 0 44 4 41 9 -6 10 26 21 62 21 12 0 22 5 22 10 0 6 20 10 44 10 30 0 46 5 50 15 3 10 19 15 45 15 25 0 41 5 45 15 3 10 19 15 46 15 22 0 40 5 40 10 0 6 7 10 15 10 12 0 15 13 15 61 0 37 -4 58 -10 54 -11 -7 -13 1 -14 50 -1 29 -3 30 -50 33 -37 2 -52 -1 -58 -12 -6 -11 -24 -16 -58 -16 -28 0 -50 -4 -50 -10 0 -5 -22 -10 -49 -10 -36 0 -51 -4 -55 -16 -5 -13 -17 -16 -60 -12 -44 4 -53 2 -52 -11 1 -13 -10 -16 -56 -14 -46 1 -56 -1 -51 -13 4 -11 -6 -14 -47 -14 -30 0 -57 -6 -65 -14 -10 -9 -28 -12 -60 -8 -36 4 -45 2 -43 -9 2 -10 -13 -15 -55 -19 -31 -3 -56 -9 -55 -15 2 -5 -21 -11 -49 -13 -29 -2 -53 -7 -53 -13 0 -5 -25 -9 -55 -9 -42 0 -55 -3 -55 -15 0 -12 -13 -15 -56 -15 -30 0 -53 -4 -50 -9 8 -12 -19 -21 -65 -21 -21 0 -39 -4 -39 -10 0 -5 -24 -10 -54 -10 -39 0 -55 -4 -60 -15 -4 -11 -20 -15 -55 -15 -35 0 -51 -4 -55 -16 -5 -13 -15 -15 -56 -9 -42 6 -50 4 -50 -9 0 -13 -11 -16 -56 -16 -34 0 -53 -4 -49 -10 7 -12 -4 -14 -61 -11 -30 2 -43 -2 -47 -13 -5 -12 -20 -16 -57 -16 -38 0 -50 -4 -50 -15 0 -12 -13 -15 -56 -15 -34 0 -53 -4 -49 -10 4 -6 -15 -10 -48 -10 -40 0 -56 -4 -61 -15 -4 -11 -20 -15 -55 -15 -34 0 -51 -4 -55 -15 -4 -11 -20 -15 -56 -15 -27 0 -50 -4 -50 -10 0 -5 -24 -10 -54 -10 -41 0 -55 -4 -60 -16 -5 -13 -15 -15 -51 -11 -35 5 -45 3 -45 -7 0 -20 -24 -26 -76 -19 -35 5 -44 3 -42 -8 2 -10 -11 -15 -47 -17 -27 -2 -53 -8 -57 -14 -3 -7 -28 -11 -57 -9 -40 2 -51 -1 -51 -14 0 -12 -12 -15 -55 -15 -39 0 -54 -4 -52 -12 1 -9 -15 -14 -50 -16 -29 -2 -53 -7 -53 -13 0 -5 -11 -9 -25 -9 -22 0 -25 3 -19 26 5 18 3 25 -3 21 -13 -8 -23 15 -23 49 0 15 -6 24 -15 24 -10 0 -15 10 -15 29 0 16 -6 31 -15 35 -9 3 -15 18 -15 36 0 16 -4 30 -10 30 -5 0 -10 11 -10 25 0 14 -8 30 -19 36 -11 8 -16 19 -13 32 3 12 -1 23 -12 29 -9 5 -16 18 -16 28 0 11 -6 19 -12 17 -8 -1 -14 10 -16 26 -2 16 -10 31 -18 34 -8 3 -14 18 -14 34 0 19 -5 29 -15 29 -8 0 -15 7 -15 15 0 8 -4 15 -9 15 -5 0 -12 13 -16 28 -3 15 -16 39 -29 53 -12 13 -26 37 -30 52 -3 15 -11 27 -16 27 -6 0 -10 6 -10 14 0 8 -7 16 -15 20 -8 3 -15 14 -15 23 0 10 -13 33 -30 51 -16 18 -30 37 -30 43 0 5 -7 9 -15 9 -8 0 -15 9 -15 20 0 11 -4 20 -8 20 -5 0 -14 11 -20 24 -12 27 -40 62 -89 113 -18 19 -33 36 -33 38 0 2 -12 18 -27 34 -44 47 -53 59 -53 71 0 5 -7 10 -15 10 -8 0 -15 7 -15 15 0 8 -7 15 -15 15 -8 0 -15 5 -15 11 0 6 -36 46 -80 88 -44 43 -80 82 -80 88 0 6 -9 13 -21 16 -12 3 -18 10 -15 15 3 6 -6 13 -19 16 -14 4 -23 11 -20 16 3 6 -4 10 -15 10 -13 0 -24 8 -27 20 -3 11 -12 20 -19 20 -8 0 -14 6 -14 14 0 8 -11 17 -25 20 -14 4 -23 11 -20 16 3 6 -4 10 -15 10 -13 0 -24 8 -27 20 -3 11 -12 20 -19 20 -8 0 -14 7 -14 15 0 8 -9 15 -20 15 -11 0 -23 7 -26 15 -4 8 -14 15 -24 15 -10 0 -20 9 -23 19 -2 11 -15 21 -28 23 -13 2 -23 9 -22 16 2 6 -6 12 -17 12 -11 0 -23 7 -26 15 -4 8 -15 15 -26 15 -11 0 -22 8 -25 20 -3 13 -14 20 -29 20 -15 0 -24 6 -24 15 0 8 -9 15 -19 15 -11 0 -26 6 -33 13 -7 8 -26 17 -41 21 -15 3 -27 13 -27 21 0 9 -9 15 -23 15 -12 0 -30 9 -40 20 -9 11 -25 20 -36 20 -10 0 -21 7 -25 15 -3 8 -17 15 -31 15 -14 0 -28 7 -31 15 -4 9 -19 15 -36 15 -21 0 -31 6 -35 20 -4 15 -14 20 -39 20 -22 0 -34 5 -34 14 0 8 -15 15 -40 19 -22 3 -47 12 -55 21 -9 9 -30 16 -46 16 -17 0 -32 6 -35 15 -4 8 -18 15 -34 15 -39 0 -60 9 -60 26 0 10 -14 14 -48 14 -35 0 -52 5 -65 20 -13 16 -29 20 -72 20 -40 0 -55 4 -55 14 0 14 -49 26 -114 26 -29 0 -37 3 -33 14 5 11 -14 16 -91 21 -102 8 -122 13 -102 25 14 9 -59 14 -410 30 -129 6 -300 14 -380 18 -114 6 -147 5 -153 -5 -6 -9 -35 -13 -98 -13 -68 0 -94 -4 -106 -15 -12 -13 -29 -15 -84 -9 -60 6 -69 4 -69 -10 0 -13 -12 -16 -64 -16 -42 0 -66 -4 -69 -12 -8 -21 -29 43 -35 102 -2 30 -9 60 -14 67 -5 7 -12 39 -15 73 -4 38 -10 60 -18 60 -18 0 -25 24 -25 85 0 45 -3 53 -21 58 -19 5 -21 11 -17 52 7 60 0 85 -24 85 -17 0 -18 5 -12 49 7 52 -7 91 -31 91 -11 0 -14 11 -12 47 1 36 -2 48 -12 48 -18 0 -33 51 -26 86 4 19 -1 34 -22 57 l-27 32 -224 0 -224 0 5 -32z m1704 -1368 c214 -10 252 -14 264 -32 3 -4 34 -10 70 -14 86 -7 111 -13 105 -23 -3 -5 19 -12 50 -16 33 -4 57 -12 61 -21 3 -9 20 -14 49 -14 33 0 47 -5 56 -20 9 -14 24 -20 50 -20 27 0 38 -4 38 -15 0 -10 14 -17 40 -21 24 -4 40 -12 40 -20 0 -9 11 -14 30 -14 20 0 30 -5 30 -15 0 -8 9 -15 19 -15 30 0 51 -11 51 -26 0 -8 10 -14 25 -14 14 0 28 -6 31 -14 3 -8 17 -17 30 -20 14 -4 22 -11 19 -16 -3 -6 3 -10 14 -10 11 0 25 -9 31 -19 5 -11 20 -21 32 -23 13 -2 22 -9 21 -16 -2 -6 5 -12 15 -12 10 0 32 -16 48 -35 16 -19 37 -35 48 -35 12 0 16 -5 12 -15 -3 -10 1 -15 12 -15 19 0 62 -41 62 -59 0 -6 7 -11 15 -11 8 0 15 -7 15 -15 0 -8 7 -15 15 -15 8 0 15 -4 15 -10 0 -12 48 -60 60 -60 6 0 10 -4 10 -10 0 -5 15 -24 33 -43 43 -45 62 -69 70 -90 3 -9 11 -17 17 -17 5 0 10 -7 10 -15 0 -8 7 -15 15 -15 8 0 15 -6 15 -14 0 -8 7 -16 15 -20 8 -3 15 -12 15 -21 0 -8 7 -15 15 -15 8 0 15 -9 15 -19 0 -11 7 -26 15 -35 8 -8 15 -19 15 -24 0 -6 7 -12 15 -16 8 -3 12 -12 9 -21 -4 -9 -1 -15 9 -15 9 0 18 -12 22 -29 3 -16 13 -32 21 -35 9 -3 12 -10 9 -16 -3 -5 1 -10 9 -10 9 0 16 -8 16 -19 0 -11 7 -26 15 -35 8 -8 15 -22 15 -30 0 -9 4 -16 9 -16 5 0 12 -13 16 -29 3 -16 13 -32 21 -35 8 -3 14 -17 14 -31 0 -16 6 -25 16 -25 12 0 15 -6 11 -21 -3 -13 2 -28 14 -40 10 -10 19 -26 19 -34 0 -8 5 -15 10 -15 6 0 10 -18 10 -40 0 -27 4 -39 13 -38 7 2 13 -11 15 -34 2 -25 8 -38 18 -38 9 0 14 -10 14 -29 0 -17 6 -31 16 -35 10 -4 13 -13 9 -26 -4 -13 0 -23 14 -32 13 -8 21 -23 21 -40 0 -16 5 -28 10 -28 6 0 10 -20 10 -44 0 -30 5 -46 15 -50 10 -3 15 -19 15 -46 0 -23 4 -39 9 -36 11 7 21 -17 21 -49 0 -13 4 -26 9 -29 5 -3 11 -24 13 -46 l4 -40 -52 0 c-37 0 -54 -4 -58 -15 -4 -11 -20 -15 -55 -15 -36 0 -51 -4 -55 -16 -5 -14 -15 -15 -56 -10 -41 6 -50 4 -50 -9 0 -12 -12 -15 -56 -15 -30 0 -53 -4 -50 -9 9 -14 -18 -20 -63 -14 -33 5 -41 3 -41 -11 0 -13 -11 -16 -55 -16 -42 0 -55 -3 -55 -15 0 -12 -13 -15 -55 -15 -30 0 -55 -4 -55 -10 0 -5 -22 -10 -49 -10 -34 0 -51 -4 -55 -15 -4 -11 -20 -15 -55 -15 -34 0 -51 -4 -55 -15 -4 -11 -20 -15 -56 -15 -27 0 -50 -4 -50 -10 0 -5 -25 -10 -56 -10 -30 0 -53 -4 -50 -9 8 -13 -19 -21 -70 -21 -25 0 -43 -4 -40 -9 10 -15 -25 -22 -71 -15 -37 5 -42 4 -37 -10 5 -13 -2 -16 -46 -16 -31 0 -57 -6 -66 -14 -9 -10 -26 -12 -54 -9 -31 4 -41 2 -46 -11 -5 -12 -19 -16 -60 -16 -38 0 -53 -4 -52 -12 2 -9 -15 -14 -55 -16 -33 -2 -55 -7 -52 -13 4 -5 -17 -9 -49 -9 -43 0 -56 -3 -56 -15 0 -12 -13 -15 -56 -15 -30 0 -53 -4 -50 -9 8 -13 -19 -21 -70 -21 -24 0 -44 -4 -44 -10 0 -6 -27 -10 -61 -10 l-61 0 7 39 c6 34 3 41 -15 51 -18 10 -21 17 -15 46 5 27 3 34 -10 34 -11 0 -15 11 -15 45 0 31 -4 44 -12 43 -9 -2 -14 13 -16 45 -2 33 -7 47 -18 47 -10 0 -14 12 -14 45 0 25 -4 45 -10 45 -5 0 -10 20 -10 44 0 30 -5 46 -15 50 -9 3 -15 19 -15 41 0 20 -4 34 -9 31 -10 -7 -21 27 -21 67 0 15 -4 27 -10 27 -5 0 -10 20 -10 45 0 33 -4 45 -15 45 -11 0 -15 12 -15 44 0 30 -5 46 -15 50 -10 3 -15 19 -15 45 0 22 -4 43 -10 46 -5 3 -10 22 -10 41 0 19 -4 33 -9 30 -12 -8 -21 18 -21 60 0 24 -5 34 -15 34 -11 0 -15 12 -15 44 0 25 -4 48 -10 51 -5 3 -10 24 -10 46 0 26 -5 42 -15 45 -10 4 -15 20 -15 44 0 24 -5 40 -15 44 -9 3 -15 19 -15 41 0 19 -4 35 -10 35 -5 0 -10 20 -10 45 0 33 -4 45 -15 45 -11 0 -15 12 -15 45 0 31 -5 47 -15 51 -10 4 -15 20 -15 49 0 27 -5 45 -13 48 -9 3 -12 16 -9 37 3 22 -1 35 -14 45 -14 9 -18 23 -16 49 3 26 0 36 -10 34 -9 -2 -14 10 -16 37 -2 22 -8 44 -13 49 -5 6 -9 27 -9 48 0 25 -6 40 -17 47 -13 7 -17 20 -14 50 2 30 -2 43 -13 47 -11 4 -16 19 -16 46 0 21 -4 37 -9 34 -13 -8 -23 23 -15 46 4 13 -1 26 -15 39 -15 14 -19 27 -15 49 5 22 2 31 -10 36 -11 4 -16 19 -16 50 0 31 -5 46 -16 51 -10 4 -14 15 -12 35 2 17 -3 33 -12 38 -10 7 2 10 41 10 41 0 58 4 63 15 4 11 22 15 71 15 37 0 64 4 61 9 -10 16 23 21 101 14 66 -5 77 -4 85 12 9 16 20 17 97 11 47 -4 186 -11 308 -16z m-1231 -277 c-3 -32 -3 -52 0 -45 12 26 24 -1 24 -54 0 -30 4 -53 9 -50 14 9 21 -19 14 -58 -4 -27 -1 -37 13 -46 16 -9 19 -22 17 -68 -2 -31 0 -51 3 -44 12 26 24 -1 24 -53 0 -30 5 -57 10 -60 6 -3 10 -24 10 -46 0 -26 5 -42 15 -45 11 -5 15 -22 15 -64 0 -42 4 -59 15 -64 10 -4 15 -20 15 -51 0 -25 5 -45 10 -45 6 0 10 -21 10 -46 0 -27 6 -51 15 -60 9 -10 15 -34 15 -65 0 -38 4 -49 16 -49 13 0 14 -9 9 -55 -6 -48 -5 -55 9 -49 14 5 16 -3 16 -54 0 -43 4 -61 14 -65 11 -4 13 -16 9 -40 -3 -23 0 -38 11 -50 11 -10 16 -34 16 -71 0 -40 4 -55 13 -53 8 1 13 -15 15 -50 2 -29 7 -53 13 -53 5 0 9 -20 9 -45 0 -31 5 -47 15 -51 11 -5 15 -22 15 -65 0 -46 3 -59 15 -59 11 0 15 -12 15 -50 0 -27 5 -50 10 -50 6 0 10 -25 10 -55 0 -40 4 -57 15 -61 10 -4 15 -20 15 -50 0 -30 5 -46 15 -50 12 -5 14 -17 9 -60 -6 -48 -5 -54 10 -48 14 5 16 -2 16 -50 0 -39 4 -58 14 -62 10 -4 12 -16 9 -43 -4 -26 0 -41 11 -50 11 -9 16 -30 16 -66 0 -39 4 -54 16 -59 11 -4 14 -17 12 -48 -3 -41 -5 -43 -37 -46 -19 -2 -40 -10 -48 -18 -10 -10 -26 -12 -54 -8 -31 5 -39 4 -37 -7 2 -10 -11 -15 -45 -19 -26 -3 -46 -9 -45 -15 2 -5 -15 -11 -36 -13 -22 -2 -45 -10 -51 -19 -9 -12 -21 -14 -48 -9 -30 6 -37 4 -37 -9 0 -11 -11 -15 -45 -15 -33 0 -45 -4 -45 -15 0 -11 -12 -15 -44 -15 -30 0 -46 -5 -50 -15 -3 -9 -19 -15 -41 -15 -19 0 -35 -4 -35 -10 0 -5 -15 -10 -34 -10 -19 0 -41 -7 -50 -15 -8 -8 -32 -15 -54 -15 -26 0 -42 -5 -46 -15 -3 -10 -19 -15 -46 -15 -22 0 -40 -4 -40 -9 0 -5 -20 -12 -45 -15 -25 -4 -45 -11 -45 -17 0 -5 -18 -9 -39 -9 -25 0 -41 -5 -45 -15 -4 -10 -20 -15 -51 -15 -31 0 -44 -4 -43 -12 2 -9 -12 -14 -39 -16 -24 -2 -43 -7 -43 -13 0 -5 -20 -9 -44 -9 -30 0 -46 -5 -50 -15 -3 -10 -19 -15 -46 -15 -29 0 -40 -4 -40 -15 0 -11 -12 -15 -46 -15 -27 0 -43 -4 -39 -10 4 -6 -13 -10 -44 -10 -39 0 -51 -4 -51 -15 0 -11 -11 -15 -39 -15 -25 0 -41 -5 -45 -15 -3 -10 -19 -15 -46 -15 -22 0 -40 -4 -40 -10 0 -5 -20 -10 -45 -10 -33 0 -45 -4 -45 -15 0 -11 -12 -15 -45 -15 -33 0 -45 -4 -45 -15 0 -11 -12 -15 -45 -15 -25 0 -45 -4 -45 -10 0 -5 -20 -10 -45 -10 -33 0 -45 -4 -45 -15 0 -11 -11 -15 -36 -15 l-36 0 7 65 c5 52 4 65 -7 63 -10 -2 -14 20 -16 97 -2 58 -7 102 -14 106 -12 8 -12 15 2 323 5 126 8 232 5 234 -3 3 -5 -12 -6 -34 0 -36 -1 -37 -10 -14 -11 27 -2 103 11 95 13 -8 18 41 24 195 4 133 11 175 26 165 4 -3 11 36 15 85 4 56 13 96 21 105 8 7 14 27 14 43 0 49 12 92 25 92 8 0 14 20 17 56 3 39 10 59 21 66 11 6 17 22 17 48 0 27 4 40 14 40 14 0 26 29 26 66 0 12 7 24 15 28 9 3 15 18 15 35 0 16 7 36 15 45 8 8 15 26 15 39 0 16 7 26 20 30 15 4 20 14 20 36 0 19 5 30 12 29 7 -2 14 8 16 22 2 14 12 33 23 43 10 10 19 27 19 37 0 11 5 20 11 20 5 0 7 5 4 10 -3 6 -1 10 4 10 6 0 11 9 11 20 0 11 7 20 15 20 9 0 18 12 22 30 3 17 12 30 20 30 8 0 12 4 9 8 -3 5 4 18 14 30 11 12 20 28 20 37 0 8 7 15 15 15 9 0 18 12 22 30 3 17 12 30 19 30 8 0 14 7 14 15 0 8 7 15 15 15 8 0 15 5 15 10 0 6 9 20 20 32 11 12 20 28 20 35 0 7 7 13 16 13 8 0 12 5 9 11 -4 6 2 13 14 16 12 3 21 12 21 19 0 8 7 14 15 14 8 0 15 7 15 15 0 8 7 15 15 15 8 0 15 6 15 13 0 7 11 21 25 31 14 10 25 25 25 32 0 8 6 14 13 14 7 0 23 14 37 30 14 17 31 30 38 30 7 0 11 4 8 9 -3 5 3 11 14 14 11 3 20 12 20 21 0 9 8 16 20 16 11 0 20 5 20 10 0 6 9 10 20 10 12 0 20 7 20 16 0 9 9 18 20 21 11 3 20 9 20 14 0 5 6 9 14 9 7 0 16 10 19 21 4 15 11 20 21 16 10 -4 16 -1 16 8 0 9 10 15 25 15 16 0 25 6 25 15 0 8 9 15 20 15 11 0 20 7 20 15 0 8 9 15 20 15 11 0 23 7 26 15 4 8 17 15 30 15 14 0 23 5 22 12 -2 7 8 14 22 16 14 2 29 10 33 18 4 8 16 14 26 14 11 0 21 7 25 15 3 8 15 15 26 15 11 0 20 5 20 10 0 6 13 10 29 10 16 0 31 6 35 15 3 9 18 15 36 15 20 0 30 5 30 15 0 11 11 15 36 15 l35 0 -5 -57z m3597 -2433 c-5 -58 -3 -70 8 -68 11 2 15 -13 17 -67 2 -38 7 -74 13 -79 5 -6 9 -56 9 -113 0 -71 4 -103 12 -103 8 0 9 -49 4 -187 -3 -107 -2 -182 2 -175 14 21 21 -55 11 -113 -4 -28 -9 -70 -10 -95 -2 -45 -2 -45 -8 -10 -7 37 -14 -23 -30 -270 -5 -81 -11 -112 -24 -125 -12 -12 -17 -34 -17 -77 0 -45 -4 -64 -17 -73 -11 -8 -18 -34 -22 -81 -4 -47 -10 -68 -19 -66 -7 1 -12 -9 -12 -25 0 -43 -11 -73 -26 -73 -10 0 -14 -13 -14 -45 0 -33 -4 -45 -15 -45 -11 0 -15 -11 -15 -41 0 -32 -4 -42 -20 -46 -14 -4 -20 -14 -20 -33 0 -15 -6 -30 -14 -33 -8 -3 -17 -24 -21 -46 -4 -25 -12 -41 -21 -41 -9 0 -14 -11 -14 -29 0 -16 -6 -31 -15 -35 -8 -3 -15 -14 -15 -26 0 -11 -9 -25 -20 -32 -11 -7 -20 -23 -20 -36 0 -12 -7 -25 -15 -28 -8 -4 -15 -12 -15 -19 0 -6 -9 -22 -20 -35 -11 -13 -20 -27 -20 -32 0 -4 -6 -8 -14 -8 -9 0 -16 -12 -18 -27 -2 -16 -8 -27 -15 -25 -7 1 -13 -7 -13 -18 0 -11 -6 -20 -14 -20 -8 0 -17 -14 -21 -30 -4 -16 -13 -30 -21 -30 -8 0 -14 -7 -14 -15 0 -8 -7 -15 -15 -15 -8 0 -15 -7 -15 -15 0 -8 -7 -15 -15 -15 -8 0 -15 -7 -15 -15 0 -8 -5 -15 -11 -15 -5 0 -7 -5 -4 -10 3 -6 -1 -13 -9 -16 -9 -3 -16 -12 -16 -20 0 -8 -7 -14 -15 -14 -8 0 -15 -7 -15 -15 0 -8 -6 -15 -12 -15 -7 -1 -24 -14 -38 -30 -13 -17 -30 -30 -37 -30 -7 0 -13 -7 -13 -15 0 -8 -7 -15 -15 -15 -8 0 -15 -7 -15 -15 0 -8 -6 -15 -13 -15 -7 0 -23 -13 -37 -30 -14 -16 -30 -30 -37 -30 -7 0 -13 -4 -13 -10 0 -5 -6 -10 -14 -10 -7 0 -16 -9 -19 -20 -3 -11 -12 -20 -21 -20 -9 0 -16 -4 -16 -10 0 -5 -9 -10 -20 -10 -11 0 -20 -7 -20 -15 0 -9 -9 -15 -25 -15 -18 0 -23 -4 -19 -15 4 -10 0 -15 -14 -15 -11 0 -22 -7 -26 -15 -3 -8 -15 -15 -26 -15 -11 0 -20 -7 -20 -15 0 -8 -9 -15 -19 -15 -10 0 -21 -7 -25 -15 -3 -8 -14 -15 -25 -15 -10 0 -21 -7 -25 -15 -3 -8 -16 -15 -30 -15 -13 0 -26 -7 -30 -15 -3 -8 -12 -12 -20 -9 -8 3 -19 -3 -26 -15 -6 -12 -20 -21 -30 -21 -11 0 -20 -4 -20 -10 0 -5 -13 -10 -29 -10 -16 0 -31 -6 -35 -15 -3 -9 -18 -15 -36 -15 -20 0 -30 -5 -30 -15 0 -9 -9 -15 -25 -15 -20 0 -25 5 -25 26 0 14 -4 23 -9 20 -14 -9 -21 19 -14 57 3 23 0 38 -11 50 -9 9 -16 32 -16 55 0 26 -5 42 -15 46 -11 4 -15 21 -15 60 0 30 -4 58 -10 61 -5 3 -10 23 -10 44 0 22 -6 44 -15 51 -10 8 -15 31 -15 67 0 30 -4 52 -9 49 -12 -8 -21 18 -21 64 0 21 -4 42 -10 45 -5 3 -10 32 -10 63 0 35 -4 52 -9 44 -12 -19 -21 8 -21 64 0 31 -5 46 -15 51 -13 4 -14 15 -9 49 5 37 4 44 -10 44 -13 0 -16 11 -16 60 0 43 -4 62 -14 66 -10 4 -13 15 -9 38 3 22 0 38 -11 49 -11 11 -16 34 -16 74 0 35 -4 53 -9 45 -12 -19 -21 8 -21 64 0 24 -4 44 -10 44 -5 0 -10 18 -10 39 0 22 -7 46 -15 55 -10 9 -15 34 -15 70 0 43 -3 56 -15 56 -11 0 -15 12 -15 50 0 28 -4 50 -10 50 -5 0 -10 25 -10 56 0 30 -4 53 -9 50 -13 -8 -21 19 -21 70 0 31 -4 44 -14 44 -12 0 -13 11 -9 55 5 49 4 55 -11 49 -14 -5 -16 2 -16 50 0 41 -4 58 -15 62 -11 4 -15 21 -15 55 0 27 -4 49 -10 49 -5 0 -10 24 -10 54 0 39 -4 55 -15 60 -10 4 -15 20 -15 50 0 25 -4 47 -9 50 -4 3 -11 28 -15 56 -4 27 -11 50 -16 50 -6 0 -10 25 -10 55 l0 55 45 0 c31 0 44 4 43 13 -2 8 14 14 45 17 26 3 47 10 47 15 0 6 18 11 40 13 22 2 40 7 40 13 0 5 20 9 44 9 30 0 46 5 50 15 3 10 19 15 45 15 25 0 41 5 45 15 3 10 19 15 46 15 22 0 40 5 40 10 0 6 20 10 45 10 33 0 45 4 45 15 0 11 12 15 45 15 33 0 45 4 45 15 0 11 12 15 46 15 27 0 43 4 39 10 -4 6 11 10 38 10 31 0 47 5 51 15 4 10 20 15 50 15 36 0 44 3 40 15 -5 12 3 15 39 15 27 0 47 5 49 12 3 7 20 11 46 10 32 -2 42 1 42 13 0 16 7 18 58 15 22 -1 32 3 30 12 -2 9 11 14 42 16 26 2 48 9 53 18 6 11 18 13 43 8 26 -5 34 -3 34 9 0 20 23 28 59 21 20 -4 30 -1 34 10 5 11 19 16 52 16 26 0 44 4 40 9 -7 13 30 24 54 16 14 -4 23 0 31 16 10 18 18 20 51 15 31 -5 39 -3 39 9 0 11 12 15 46 15 25 0 43 4 40 9 -8 12 18 21 59 21 21 0 35 6 39 16 5 13 15 15 45 11 31 -4 38 -2 34 9 -4 11 5 14 40 14 31 0 47 5 51 15 4 10 20 15 50 15 l45 0 -6 -70z m-2793 -799 c0 -22 7 -46 15 -55 8 -8 15 -32 15 -54 0 -26 5 -42 15 -46 10 -3 15 -19 15 -45 0 -22 5 -43 10 -46 6 -3 10 -17 10 -30 0 -13 7 -30 15 -39 8 -8 15 -31 15 -51 0 -22 6 -38 15 -41 10 -4 15 -20 15 -50 0 -24 4 -44 9 -44 4 0 11 -21 14 -47 3 -26 10 -49 16 -51 6 -2 11 -21 11 -43 0 -26 5 -42 15 -45 10 -4 15 -20 15 -46 0 -21 4 -37 9 -34 11 7 21 -18 21 -55 0 -16 5 -29 10 -29 6 0 10 -20 10 -45 0 -31 5 -47 15 -51 10 -4 15 -20 15 -50 0 -32 4 -44 15 -44 11 0 15 -11 15 -41 0 -24 4 -38 10 -34 10 6 13 -10 10 -57 -1 -20 3 -28 14 -28 12 0 16 -11 16 -44 0 -30 5 -46 15 -50 10 -4 15 -20 15 -51 0 -32 4 -45 14 -45 11 0 13 -10 9 -39 -4 -32 -2 -42 15 -52 16 -10 19 -21 16 -53 -2 -23 -1 -35 2 -28 11 23 24 1 24 -43 0 -30 5 -45 16 -49 11 -4 15 -14 11 -33 -6 -34 1 -53 20 -53 13 0 14 -8 9 -40 -5 -31 -3 -42 9 -46 10 -4 15 -20 15 -50 0 -30 5 -46 15 -50 9 -4 15 -19 15 -35 0 -16 4 -29 10 -29 5 0 12 -22 16 -50 4 -27 10 -50 15 -50 5 0 9 -20 9 -45 0 -33 4 -45 15 -45 11 0 15 -12 15 -45 0 -31 5 -47 15 -51 10 -4 15 -20 15 -44 0 -22 5 -42 10 -45 6 -3 10 -21 10 -40 0 -20 6 -35 15 -39 10 -3 15 -19 15 -45 0 -25 5 -41 15 -45 10 -3 15 -19 15 -45 0 -22 5 -43 10 -46 16 -10 12 -38 -5 -31 -9 3 -15 0 -15 -9 0 -12 -15 -15 -66 -15 -36 0 -63 -4 -60 -9 10 -15 -19 -20 -79 -14 -46 5 -58 3 -69 -12 -11 -16 -23 -17 -99 -12 -72 5 -88 3 -95 -10 -8 -13 -38 -14 -278 -4 -334 14 -387 19 -380 37 4 11 -7 14 -47 15 -73 0 -132 13 -129 27 1 8 -16 12 -50 13 -46 0 -110 15 -83 19 20 3 -31 19 -63 19 -19 1 -35 7 -38 16 -4 8 -18 15 -34 15 -39 0 -60 9 -60 26 0 9 -12 14 -35 14 -24 0 -35 5 -35 15 0 8 -14 17 -35 21 -19 3 -39 12 -43 19 -4 7 -18 15 -32 17 -14 2 -24 9 -22 16 1 7 -9 12 -24 12 -17 0 -28 6 -31 20 -4 13 -14 20 -29 20 -14 0 -27 7 -30 15 -4 8 -15 15 -25 15 -11 0 -22 7 -25 15 -4 8 -15 15 -25 15 -10 0 -19 7 -19 15 0 9 -12 20 -26 25 -14 6 -22 14 -19 20 4 6 -5 10 -19 10 -16 0 -26 6 -26 14 0 7 -9 16 -20 19 -11 3 -20 12 -20 21 0 9 -8 16 -20 16 -11 0 -20 7 -20 15 0 8 -7 15 -15 15 -9 0 -18 7 -21 15 -4 8 -12 15 -20 15 -8 0 -14 5 -14 11 0 6 -20 30 -45 53 -25 24 -45 48 -45 54 0 7 -4 12 -8 12 -16 0 -52 37 -52 53 0 8 -9 17 -21 20 -12 3 -18 10 -14 16 3 6 -1 11 -9 11 -9 0 -16 6 -16 14 0 8 -7 16 -15 20 -8 3 -15 12 -15 21 0 8 -7 15 -15 15 -8 0 -15 9 -15 20 0 11 -4 20 -10 20 -5 0 -12 11 -16 25 -3 14 -12 25 -20 25 -8 0 -14 6 -14 14 0 8 -7 17 -16 20 -9 4 -14 13 -10 21 3 9 0 15 -9 15 -7 0 -16 14 -20 30 -4 17 -11 30 -16 30 -5 0 -9 7 -9 15 0 9 -7 18 -15 21 -8 4 -15 14 -15 24 0 10 -7 25 -15 34 -8 8 -15 19 -15 24 0 6 -7 12 -15 16 -8 3 -15 17 -15 31 0 14 -7 28 -15 31 -9 4 -15 19 -15 35 0 20 -5 29 -16 29 -10 0 -14 6 -10 15 3 9 0 15 -9 15 -7 0 -16 13 -20 30 -4 16 -11 32 -16 35 -5 4 -9 19 -9 36 0 19 -5 29 -15 29 -10 0 -15 10 -15 29 0 16 -6 31 -15 35 -8 3 -15 16 -15 30 0 14 -4 28 -10 31 -5 3 -10 18 -10 33 0 15 -9 35 -20 45 -14 12 -18 24 -14 45 4 21 2 31 -10 35 -11 4 -16 19 -16 42 0 20 -4 34 -9 31 -11 -7 -21 17 -21 54 0 16 -7 30 -15 34 -10 4 -15 20 -15 51 0 25 -4 45 -10 45 -5 0 -10 20 -10 45 0 33 -4 45 -15 45 -10 0 -15 10 -15 30 0 29 1 30 51 30 31 0 48 4 44 10 -7 11 11 14 67 11 27 -2 40 2 44 13 5 12 20 16 60 16 38 0 53 4 52 13 -2 8 14 13 50 15 28 2 52 7 52 13 0 5 23 9 50 9 36 0 52 4 56 15 5 11 21 15 61 15 30 0 52 4 49 9 -8 12 19 21 65 21 21 0 39 5 39 10 0 6 27 10 60 10 43 0 59 4 57 13 -1 8 14 13 47 15 27 2 55 10 63 17 10 10 27 13 58 8 38 -5 45 -3 45 11 0 13 11 16 54 16 34 0 56 5 58 12 3 7 21 11 46 10 31 -2 44 1 48 13 5 11 21 15 59 15 38 0 55 4 59 15 4 11 20 15 56 15 27 0 50 5 50 10 0 6 23 10 50 10 36 0 52 4 56 15 4 10 21 15 54 15 31 0 52 5 61 16 10 12 25 15 56 11 32 -3 43 -1 43 9 0 10 15 14 54 14 39 0 55 4 60 15 4 10 20 15 51 15 26 0 52 6 60 14 10 9 28 12 60 9 37 -5 45 -3 45 11 0 13 11 16 56 16 31 0 53 4 50 9 -8 13 12 19 62 20 l42 1 0 -39z"/>
 </g>

</svg>